<?xml version="1.0" encoding="UTF-8" standalone="no"?>
<svg
   xmlns:dc="http://purl.org/dc/elements/1.1/"
   xmlns:cc="http://creativecommons.org/ns#"
   xmlns:rdf="http://www.w3.org/1999/02/22-rdf-syntax-ns#"
   xmlns:svg="http://www.w3.org/2000/svg"
   xmlns="http://www.w3.org/2000/svg"
   xmlns:xlink="http://www.w3.org/1999/xlink"
   xmlns:sodipodi="http://sodipodi.sourceforge.net/DTD/sodipodi-0.dtd"
   xmlns:inkscape="http://www.inkscape.org/namespaces/inkscape"
   version="1.1"
   preserveAspectRatio="xMidYMid meet"
   viewBox="0 0 481.21579 196.75"
   width="481.21579"
   height="196.75"
   id="svg202"
   sodipodi:docname="logo_text.svg"
   inkscape:version="1.0.2 (e86c8708, 2021-01-15)"
   inkscape:export-filename="/Volumes/MobileBerta/Development_Lokal/VSC-Extensions/openHAB-Alignment-Tool/images/logo_text.png"
   inkscape:export-xdpi="96"
   inkscape:export-ydpi="96">
  <metadata
     id="metadata206">
    <rdf:RDF>
      <cc:Work
         rdf:about="">
        <dc:format>image/svg+xml</dc:format>
        <dc:type
           rdf:resource="http://purl.org/dc/dcmitype/StillImage" />
        <dc:title></dc:title>
      </cc:Work>
    </rdf:RDF>
  </metadata>
  <sodipodi:namedview
     pagecolor="#ffffff"
     bordercolor="#666666"
     borderopacity="1"
     objecttolerance="10"
     gridtolerance="10"
     guidetolerance="10"
     inkscape:pageopacity="0"
     inkscape:pageshadow="2"
     inkscape:window-width="1920"
     inkscape:window-height="1074"
     id="namedview204"
     showgrid="false"
     inkscape:zoom="1.4822016"
     inkscape:cx="176.31829"
     inkscape:cy="149.519"
     inkscape:window-x="2560"
     inkscape:window-y="265"
     inkscape:window-maximized="0"
     inkscape:current-layer="svg202"
     fit-margin-top="1"
     fit-margin-left="1"
     fit-margin-right="1"
     fit-margin-bottom="1"
     lock-margins="true" />
  <defs
     id="defs140">
    <path
       d="m 196.87,100 c 0,53.48 -43.34,96.88 -96.77,96.88 -29.03,0 -55.24,-12.92 -72.98,-33.31 0.23,-0.23 1.37,-1.41 3.42,-3.53 l 2.52,-2.52 2.42,-2.42 c 1.52,-1.52 2.36,-2.36 2.52,-2.53 15.12,17.66 37.3,28.97 62.2,28.97 44.66,0 81.15,-36.53 81.15,-81.34 0,-44.7 -36.49,-81.23 -81.25,-81.23 -44.86,0 -81.35,36.53 -81.35,81.33 0,6.06 0.6,12.11 2.02,17.66 -0.37,0.37 -2.22,2.18 -5.55,5.45 -4.23,4.24 -6.58,6.59 -7.05,7.07 C 4.94,120.99 3.13,110.8 3.13,100.2 3.53,46.82 46.87,3.13 100.3,3.13 c 53.13,0 96.57,43.59 96.57,96.87 z"
       id="a6BZYobMX" />
    <path
       d="m 146.88,53.13 c 1.72,0 3.12,1.39 3.12,3.12 0,1.25 0,1.88 0,3.13 0,1.72 -1.4,3.12 -3.12,3.12 -7.5,0 -26.88,0 -34.38,0 -1.73,0 -3.12,-1.4 -3.12,-3.12 0,-1.25 0,-1.88 0,-3.13 0,-1.73 1.39,-3.12 3.12,-3.12 7.5,0 26.88,0 34.38,0 z"
       id="c4K26CgJPf" />
    <path
       d="m 156.25,84.38 c 1.73,0 3.13,1.39 3.13,3.12 0,1.25 0,1.88 0,3.13 0,1.72 -1.4,3.12 -3.13,3.12 -9.37,0 -34.37,0 -43.75,0 -1.73,0 -3.12,-1.4 -3.12,-3.12 0,-1.25 0,-1.88 0,-3.13 0,-1.73 1.39,-3.12 3.12,-3.12 9.38,0 34.38,0 43.75,0 z"
       id="e1s8uVkC9u" />
    <path
       d="m 132.19,100 c 1.21,0 2.19,0.98 2.19,2.19 0,1.43 0,3.56 0,5 0,1.21 -0.98,2.19 -2.19,2.19 -4.56,0 -16.07,0 -20.63,0 -1.21,0 -2.18,-0.98 -2.18,-2.19 0,-1.44 0,-3.57 0,-5 0,-1.21 0.97,-2.19 2.18,-2.19 4.56,0 16.07,0 20.63,0 z"
       id="b5lhOZra8v" />
    <path
       d="m 90.63,53.13 c 1.72,0 3.12,1.39 3.12,3.12 0,1.25 0,1.88 0,3.13 0,1.72 -1.4,3.12 -3.12,3.12 -8.75,0 -31.88,0 -40.63,0 -1.73,0 -3.12,-1.4 -3.12,-3.12 0,-1.25 0,-1.88 0,-3.13 0,-1.73 1.39,-3.12 3.12,-3.12 8.75,0 31.88,0 40.63,0 z"
       id="h3d1CtHDK" />
    <path
       d="m 146.88,115.63 c 1.72,0 3.12,1.39 3.12,3.12 0,1.25 0,1.88 0,3.13 0,1.72 -1.4,3.12 -3.12,3.12 -7.5,0 -26.88,0 -34.38,0 -1.73,0 -3.12,-1.4 -3.12,-3.12 0,-1.25 0,-1.88 0,-3.13 0,-1.73 1.39,-3.12 3.12,-3.12 7.5,0 26.88,0 34.38,0 z"
       id="eHmD7QYFh" />
    <path
       d="m 159.38,131.25 c 1.72,0 3.12,1.4 3.12,3.13 0,1.25 0,1.87 0,3.12 0,1.73 -1.4,3.13 -3.12,3.13 -10,0 -36.88,0 -46.88,0 -1.73,0 -3.12,-1.4 -3.12,-3.13 0,-1.25 0,-1.87 0,-3.12 0,-1.73 1.39,-3.13 3.12,-3.13 10,0 36.88,0 46.88,0 z"
       id="a4scEP19Ei" />
    <path
       d="m 75.39,84.38 c 1.51,0 2.74,1.22 2.74,2.73 0,1.33 0,2.58 0,3.91 0,1.51 -1.23,2.73 -2.74,2.73 -5.7,0 -20.08,0 -25.78,0 -1.51,0 -2.73,-1.22 -2.73,-2.73 0,-1.33 0,-2.58 0,-3.91 0,-1.51 1.22,-2.73 2.73,-2.73 5.7,0 20.08,0 25.78,0 z"
       id="b1O2oODCsE" />
    <path
       d="m 137.89,68.75 c 1.51,0 2.74,1.22 2.74,2.73 0,1.33 0,2.58 0,3.91 0,1.51 -1.23,2.74 -2.74,2.74 -5.7,0 -20.08,0 -25.78,0 -1.51,0 -2.73,-1.23 -2.73,-2.74 0,-1.33 0,-2.58 0,-3.91 0,-1.51 1.22,-2.73 2.73,-2.73 5.7,0 20.08,0 25.78,0 z"
       id="a3iFDwkvD" />
    <path
       d="m 96.88,100 c 1.72,0 3.12,1.4 3.12,3.13 0,1.25 0,1.87 0,3.12 0,1.73 -1.4,3.13 -3.12,3.13 -10,0 -36.88,0 -46.88,0 -1.73,0 -3.12,-1.4 -3.12,-3.13 0,-1.25 0,-1.87 0,-3.12 0,-1.73 1.39,-3.13 3.12,-3.13 10,0 36.88,0 46.88,0 z"
       id="c101TJbeFU" />
    <path
       d="m 81.25,115.63 c 1.73,0 3.12,1.39 3.12,3.12 0,1.25 0,1.88 0,3.13 0,1.72 -1.39,3.12 -3.12,3.12 -6.87,0 -24.37,0 -31.25,0 -1.73,0 -3.12,-1.4 -3.12,-3.12 0,-1.25 0,-1.88 0,-3.13 0,-1.73 1.39,-3.12 3.12,-3.12 6.88,0 24.38,0 31.25,0 z"
       id="g25kiUQA6K" />
    <path
       d="m 72.54,131.25 c 1.36,0 2.46,1.1 2.46,2.46 0,1.38 0,3.07 0,4.45 0,1.36 -1.1,2.47 -2.46,2.47 -5.13,0 -18.07,0 -23.2,0 -1.36,0 -2.46,-1.11 -2.46,-2.47 0,-1.38 0,-3.07 0,-4.45 0,-1.36 1.1,-2.46 2.46,-2.46 5.13,0 18.07,0 23.2,0 z"
       id="a3YfP3s2ts" />
    <path
       d="m 53.41,68.75 c 1.57,0 2.84,1.27 2.84,2.84 0,1.3 0,2.39 0,3.7 0,1.56 -1.27,2.84 -2.84,2.84 -1.3,0 -2.39,0 -3.7,0 -1.56,0 -2.83,-1.28 -2.83,-2.84 0,-1.31 0,-2.4 0,-3.7 0,-1.57 1.27,-2.84 2.83,-2.84 1.31,0 2.4,0 3.7,0 z"
       id="f1DRYNEfPf" />
  </defs>
  <g
     id="g200"
     transform="translate(-1.63,-1.63)">
    <g
       id="g198">
      <g
         id="g148">
        <use
           xlink:href="#a6BZYobMX"
           opacity="1"
           fill="#474747"
           fill-opacity="1"
           id="use142"
           x="0"
           y="0"
           width="100%"
           height="100%" />
        <g
           id="g146">
          <use
             xlink:href="#a6BZYobMX"
             opacity="1"
             fill-opacity="0"
             stroke="#000000"
             stroke-width="1"
             stroke-opacity="0"
             id="use144"
             x="0"
             y="0"
             width="100%"
             height="100%" />
        </g>
      </g>
      <g
         id="g152">
        <use
           xlink:href="#c4K26CgJPf"
           opacity="1"
           fill="#474747"
           fill-opacity="1"
           id="use150"
           x="0"
           y="0"
           width="100%"
           height="100%" />
      </g>
      <g
         id="g156">
        <use
           xlink:href="#e1s8uVkC9u"
           opacity="1"
           fill="#474747"
           fill-opacity="1"
           id="use154"
           x="0"
           y="0"
           width="100%"
           height="100%" />
      </g>
      <g
         id="g160">
        <use
           xlink:href="#b5lhOZra8v"
           opacity="1"
           fill="#e64a19"
           fill-opacity="1"
           id="use158"
           x="0"
           y="0"
           width="100%"
           height="100%" />
      </g>
      <g
         id="g164">
        <use
           xlink:href="#h3d1CtHDK"
           opacity="1"
           fill="#474747"
           fill-opacity="1"
           id="use162"
           x="0"
           y="0"
           width="100%"
           height="100%" />
      </g>
      <g
         id="g168">
        <use
           xlink:href="#eHmD7QYFh"
           opacity="1"
           fill="#474747"
           fill-opacity="1"
           id="use166"
           x="0"
           y="0"
           width="100%"
           height="100%" />
      </g>
      <g
         id="g172">
        <use
           xlink:href="#a4scEP19Ei"
           opacity="1"
           fill="#e64a19"
           fill-opacity="1"
           id="use170"
           x="0"
           y="0"
           width="100%"
           height="100%" />
      </g>
      <g
         id="g176">
        <use
           xlink:href="#b1O2oODCsE"
           opacity="1"
           fill="#e64a19"
           fill-opacity="1"
           id="use174"
           x="0"
           y="0"
           width="100%"
           height="100%" />
      </g>
      <g
         id="g180">
        <use
           xlink:href="#a3iFDwkvD"
           opacity="1"
           fill="#e64a19"
           fill-opacity="1"
           id="use178"
           x="0"
           y="0"
           width="100%"
           height="100%" />
      </g>
      <g
         id="g184">
        <use
           xlink:href="#c101TJbeFU"
           opacity="1"
           fill="#474747"
           fill-opacity="1"
           id="use182"
           x="0"
           y="0"
           width="100%"
           height="100%" />
      </g>
      <g
         id="g188">
        <use
           xlink:href="#g25kiUQA6K"
           opacity="1"
           fill="#e64a19"
           fill-opacity="1"
           id="use186"
           x="0"
           y="0"
           width="100%"
           height="100%" />
      </g>
      <g
         id="g192">
        <use
           xlink:href="#a3YfP3s2ts"
           opacity="1"
           fill="#474747"
           fill-opacity="1"
           id="use190"
           x="0"
           y="0"
           width="100%"
           height="100%" />
      </g>
      <g
         id="g196">
        <use
           xlink:href="#f1DRYNEfPf"
           opacity="1"
           fill="#474747"
           fill-opacity="1"
           id="use194"
           x="0"
           y="0"
           width="100%"
           height="100%" />
      </g>
    </g>
  </g>
  <text
     xml:space="preserve"
     style="font-style:normal;font-weight:normal;font-size:53.3333px;line-height:1.25;font-family:sans-serif;fill:#474747;fill-opacity:1;stroke:none"
     x="207.75847"
     y="86.996895"
     id="text210"><tspan
       sodipodi:role="line"
       id="tspan208"
       x="207.75847"
       y="86.996895"
       style="font-style:normal;font-variant:normal;font-weight:600;font-stretch:normal;font-size:53.3333px;font-family:Montserrat;-inkscape-font-specification:'Montserrat Semi-Bold'">OpenHAB</tspan></text>
  <text
     xml:space="preserve"
     style="font-style:normal;font-weight:normal;font-size:32px;line-height:1.25;font-family:sans-serif;fill:#e64a19;fill-opacity:1;stroke:none"
     x="210.35046"
     y="132.14426"
     id="text210-5"><tspan
       sodipodi:role="line"
       id="tspan208-9"
       x="210.35046"
       y="132.14426"
       style="font-style:normal;font-variant:normal;font-weight:500;font-stretch:normal;font-size:32px;font-family:Montserrat;-inkscape-font-specification:'Montserrat Medium';fill:#e64a19;fill-opacity:1">Alignment Tool</tspan></text>
</svg>
