<?xml version="1.0" encoding="UTF-8" standalone="no"?>
<!DOCTYPE svg PUBLIC "-//W3C//DTD SVG 1.1//EN" "http://www.w3.org/Graphics/SVG/1.1/DTD/svg11.dtd">
<svg version="1.1" xmlns="http://www.w3.org/2000/svg" xmlns:xlink="http://www.w3.org/1999/xlink" preserveAspectRatio="xMidYMid meet" viewBox="0 0 200 200" width="200" height="200"><defs><path d="M196.87 100C196.87 153.48 153.53 196.88 100.1 196.88C71.07 196.88 44.86 183.96 27.12 163.57C27.35 163.34 28.49 162.16 30.54 160.04L33.06 157.52L35.48 155.1C37 153.58 37.84 152.74 38 152.57C53.12 170.23 75.3 181.54 100.2 181.54C144.86 181.54 181.35 145.01 181.35 100.2C181.35 55.5 144.86 18.97 100.1 18.97C55.24 18.97 18.75 55.5 18.75 100.3C18.75 106.36 19.35 112.41 20.77 117.96C20.4 118.33 18.55 120.14 15.22 123.41C10.99 127.65 8.64 130 8.17 130.48C4.94 120.99 3.13 110.8 3.13 100.2C3.53 46.82 46.87 3.13 100.3 3.13C153.43 3.13 196.87 46.72 196.87 100Z" id="a6BZYobMX"></path><path d="M146.88 53.13C148.6 53.13 150 54.52 150 56.25C150 57.5 150 58.13 150 59.38C150 61.1 148.6 62.5 146.88 62.5C139.38 62.5 120 62.5 112.5 62.5C110.77 62.5 109.38 61.1 109.38 59.38C109.38 58.13 109.38 57.5 109.38 56.25C109.38 54.52 110.77 53.13 112.5 53.13C120 53.13 139.38 53.13 146.88 53.13Z" id="c4K26CgJPf"></path><path d="M156.25 84.38C157.98 84.38 159.38 85.77 159.38 87.5C159.38 88.75 159.38 89.38 159.38 90.63C159.38 92.35 157.98 93.75 156.25 93.75C146.88 93.75 121.88 93.75 112.5 93.75C110.77 93.75 109.38 92.35 109.38 90.63C109.38 89.38 109.38 88.75 109.38 87.5C109.38 85.77 110.77 84.38 112.5 84.38C121.88 84.38 146.88 84.38 156.25 84.38Z" id="e1s8uVkC9u"></path><path d="M132.19 100C133.4 100 134.38 100.98 134.38 102.19C134.38 103.62 134.38 105.75 134.38 107.19C134.38 108.4 133.4 109.38 132.19 109.38C127.63 109.38 116.12 109.38 111.56 109.38C110.35 109.38 109.38 108.4 109.38 107.19C109.38 105.75 109.38 103.62 109.38 102.19C109.38 100.98 110.35 100 111.56 100C116.12 100 127.63 100 132.19 100Z" id="b5lhOZra8v"></path><path d="M90.63 53.13C92.35 53.13 93.75 54.52 93.75 56.25C93.75 57.5 93.75 58.13 93.75 59.38C93.75 61.1 92.35 62.5 90.63 62.5C81.88 62.5 58.75 62.5 50 62.5C48.27 62.5 46.88 61.1 46.88 59.38C46.88 58.13 46.88 57.5 46.88 56.25C46.88 54.52 48.27 53.13 50 53.13C58.75 53.13 81.88 53.13 90.63 53.13Z" id="h3d1CtHDK"></path><path d="M146.88 115.63C148.6 115.63 150 117.02 150 118.75C150 120 150 120.63 150 121.88C150 123.6 148.6 125 146.88 125C139.38 125 120 125 112.5 125C110.77 125 109.38 123.6 109.38 121.88C109.38 120.63 109.38 120 109.38 118.75C109.38 117.02 110.77 115.63 112.5 115.63C120 115.63 139.38 115.63 146.88 115.63Z" id="eHmD7QYFh"></path><path d="M159.38 131.25C161.1 131.25 162.5 132.65 162.5 134.38C162.5 135.63 162.5 136.25 162.5 137.5C162.5 139.23 161.1 140.63 159.38 140.63C149.38 140.63 122.5 140.63 112.5 140.63C110.77 140.63 109.38 139.23 109.38 137.5C109.38 136.25 109.38 135.63 109.38 134.38C109.38 132.65 110.77 131.25 112.5 131.25C122.5 131.25 149.38 131.25 159.38 131.25Z" id="a4scEP19Ei"></path><path d="M75.39 84.38C76.9 84.38 78.13 85.6 78.13 87.11C78.13 88.44 78.13 89.69 78.13 91.02C78.13 92.53 76.9 93.75 75.39 93.75C69.69 93.75 55.31 93.75 49.61 93.75C48.1 93.75 46.88 92.53 46.88 91.02C46.88 89.69 46.88 88.44 46.88 87.11C46.88 85.6 48.1 84.38 49.61 84.38C55.31 84.38 69.69 84.38 75.39 84.38Z" id="b1O2oODCsE"></path><path d="M137.89 68.75C139.4 68.75 140.63 69.97 140.63 71.48C140.63 72.81 140.63 74.06 140.63 75.39C140.63 76.9 139.4 78.13 137.89 78.13C132.19 78.13 117.81 78.13 112.11 78.13C110.6 78.13 109.38 76.9 109.38 75.39C109.38 74.06 109.38 72.81 109.38 71.48C109.38 69.97 110.6 68.75 112.11 68.75C117.81 68.75 132.19 68.75 137.89 68.75Z" id="a3iFDwkvD"></path><path d="M96.88 100C98.6 100 100 101.4 100 103.13C100 104.38 100 105 100 106.25C100 107.98 98.6 109.38 96.88 109.38C86.88 109.38 60 109.38 50 109.38C48.27 109.38 46.88 107.98 46.88 106.25C46.88 105 46.88 104.38 46.88 103.13C46.88 101.4 48.27 100 50 100C60 100 86.88 100 96.88 100Z" id="c101TJbeFU"></path><path d="M81.25 115.63C82.98 115.63 84.37 117.02 84.37 118.75C84.37 120 84.37 120.63 84.37 121.88C84.37 123.6 82.98 125 81.25 125C74.38 125 56.88 125 50 125C48.27 125 46.88 123.6 46.88 121.88C46.88 120.63 46.88 120 46.88 118.75C46.88 117.02 48.27 115.63 50 115.63C56.88 115.63 74.38 115.63 81.25 115.63Z" id="g25kiUQA6K"></path><path d="M72.54 131.25C73.9 131.25 75 132.35 75 133.71C75 135.09 75 136.78 75 138.16C75 139.52 73.9 140.63 72.54 140.63C67.41 140.63 54.47 140.63 49.34 140.63C47.98 140.63 46.88 139.52 46.88 138.16C46.88 136.78 46.88 135.09 46.88 133.71C46.88 132.35 47.98 131.25 49.34 131.25C54.47 131.25 67.41 131.25 72.54 131.25Z" id="a3YfP3s2ts"></path><path d="M53.41 68.75C54.98 68.75 56.25 70.02 56.25 71.59C56.25 72.89 56.25 73.98 56.25 75.29C56.25 76.85 54.98 78.13 53.41 78.13C52.11 78.13 51.02 78.13 49.71 78.13C48.15 78.13 46.88 76.85 46.88 75.29C46.88 73.98 46.88 72.89 46.88 71.59C46.88 70.02 48.15 68.75 49.71 68.75C51.02 68.75 52.11 68.75 53.41 68.75Z" id="f1DRYNEfPf"></path></defs><g><g><g><use xlink:href="#a6BZYobMX" opacity="1" fill="#474747" fill-opacity="1"></use><g><use xlink:href="#a6BZYobMX" opacity="1" fill-opacity="0" stroke="#000000" stroke-width="1" stroke-opacity="0"></use></g></g><g><use xlink:href="#c4K26CgJPf" opacity="1" fill="#474747" fill-opacity="1"></use></g><g><use xlink:href="#e1s8uVkC9u" opacity="1" fill="#474747" fill-opacity="1"></use></g><g><use xlink:href="#b5lhOZra8v" opacity="1" fill="#e64a19" fill-opacity="1"></use></g><g><use xlink:href="#h3d1CtHDK" opacity="1" fill="#474747" fill-opacity="1"></use></g><g><use xlink:href="#eHmD7QYFh" opacity="1" fill="#474747" fill-opacity="1"></use></g><g><use xlink:href="#a4scEP19Ei" opacity="1" fill="#e64a19" fill-opacity="1"></use></g><g><use xlink:href="#b1O2oODCsE" opacity="1" fill="#e64a19" fill-opacity="1"></use></g><g><use xlink:href="#a3iFDwkvD" opacity="1" fill="#e64a19" fill-opacity="1"></use></g><g><use xlink:href="#c101TJbeFU" opacity="1" fill="#474747" fill-opacity="1"></use></g><g><use xlink:href="#g25kiUQA6K" opacity="1" fill="#e64a19" fill-opacity="1"></use></g><g><use xlink:href="#a3YfP3s2ts" opacity="1" fill="#474747" fill-opacity="1"></use></g><g><use xlink:href="#f1DRYNEfPf" opacity="1" fill="#474747" fill-opacity="1"></use></g></g></g></svg>